Fly_normalized_Motion_pl12
version=1
nRows=18
nColumns=43
inDegrees=yes
endheader
time		pelvis_tilt		pelvis_list		pelvis_rotation		pelvis_tx		pelvis_ty		pelvis_tz		hip_flexion_r		hip_adduction_r		hip_rotation_r		knee_angle_r		ankle_angle_r		subtalar_angle_r		mtp_angle_r		hip_flexion_l		hip_adduction_l		hip_rotation_l		knee_angle_l		ankle_angle_l		subtalar_angle_l		mtp_angle_l		lumbar_extension		lumbar_bending		lumbar_rotation		neck_flexion		neck_lateral_bending		neck_rotation		arm_flex_r		arm_add_r		arm_rot_r		elbow_flex_r		pro_sup_r		wrist_flex_r		wrist_dev_r		hand_finger_flex_r		arm_flex_l		arm_add_l		arm_rot_l		elbow_flex_l		pro_sup_l		wrist_flex_l		wrist_dev_l		hand_finger_flex_l		
0.419167		0.522967		-0.391601		81.363848		0.017421		1.481881		0.968298		40.636299		2.464594		-1.640221		-52.944204		-20.894218		1.996806		5.077271		41.559218		-10.190990		-5.183994		-36.531083		-25.454715		1.283117		10.385185		-39.997335		-2.467126		4.317456		6.864957		-0.193841		1.259889		-16.059136		-50.200191		-19.822377		83.739614		114.535516		4.188569		-9.258471		9.581123		-11.888806		-30.497899		-9.304161		73.161253		122.637308		-21.780606		-2.205405		-14.457618		
0.423359		0.357514		-0.098329		81.191633		0.016562		1.470649		0.957837		39.978518		2.242685		-1.784053		-51.557397		-21.085128		1.766501		4.407050		40.702221		-10.176228		-5.880673		-35.744464		-25.777611		1.586330		10.296672		-39.818036		-2.650136		4.448541		6.099359		-0.164665		1.070747		-19.988612		-49.872334		-21.678771		84.090621		114.455438		3.838341		-9.722670		9.498182		-14.512978		-30.047345		-9.754562		73.101692		122.582391		-22.264882		-2.718443		-14.768278		
0.427551		0.096489		0.088694		81.027205		0.015637		1.459064		0.947316		39.429215		1.981461		-1.778976		-50.163773		-21.175332		1.572835		3.863509		39.881221		-10.113459		-6.754433		-34.831921		-26.065842		2.057444		10.309816		-39.501938		-2.900181		4.425804		5.389354		-0.019511		1.119001		-23.624399		-49.416660		-23.239859		84.317092		114.254460		3.476678		-10.172110		9.386377		-17.241156		-29.438706		-10.417158		73.030027		122.515444		-22.875370		-3.112631		-15.072666		
0.431742		-0.064024		0.387284		80.815681		0.015051		1.447435		0.936645		38.710970		1.809720		-1.859419		-48.740490		-21.217388		1.559257		2.998128		38.955767		-10.165017		-7.652652		-34.014331		-26.352375		2.452398		10.429510		-39.212411		-3.108113		4.666836		4.230679		-0.052347		0.685383		-27.432446		-48.810416		-24.895371		84.541629		114.049730		3.180389		-10.614678		9.213322		-19.733217		-28.987950		-10.659235		72.832254		122.413985		-23.366670		-3.429257		-15.393341		
0.435934		-0.200739		0.584863		80.811849		0.014588		1.435368		0.926029		38.091767		1.593623		-2.111214		-47.348552		-21.175321		1.469984		2.353301		38.207093		-10.111821		-8.261726		-33.201614		-26.686002		2.877302		10.509244		-38.851782		-3.219725		4.649150		3.292860		0.092691		0.639663		-30.888479		-48.059584		-26.233836		84.701615		113.794554		2.918838		-11.037717		9.029760		-22.447667		-28.500983		-11.149568		72.802615		122.321731		-23.963927		-3.721797		-15.709351		
0.440126		-0.268526		0.786216		80.941309		0.014314		1.423093		0.915471		37.425663		1.396874		-2.481436		-45.909456		-21.141864		1.413743		1.871057		37.545274		-10.041339		-8.698562		-32.466169		-27.010182		3.216614		10.552653		-38.493864		-3.230059		4.525591		2.294962		0.265950		0.614254		-34.085593		-47.256245		-27.297657		84.781172		113.514705		2.678564		-11.444981		8.837270		-25.227375		-28.036360		-11.717081		72.800606		122.266581		-24.544525		-3.998229		-15.992690		
0.444318		-0.203072		1.141803		81.231672		0.013986		1.410974		0.904758		36.507157		1.203045		-3.140579		-44.430277		-20.995255		1.393276		1.274563		36.741948		-9.973530		-8.944511		-31.756216		-27.337325		3.566376		10.610287		-38.338722		-3.051851		4.494931		1.362177		0.400835		0.481986		-37.497830		-46.239675		-28.579489		84.949787		113.132022		2.336808		-11.976497		8.557936		-27.771618		-27.580809		-12.119374		72.704465		122.276915		-25.098941		-4.365058		-16.336771		
0.448510		-0.025624		1.553367		81.519674		0.013350		1.398875		0.893971		35.446326		1.055766		-3.963015		-42.840140		-20.830055		1.488431		0.624640		35.868245		-9.957336		-9.100837		-31.006412		-27.587081		3.811290		10.665743		-38.247387		-2.715870		4.547660		0.396412		0.396240		0.317173		-40.820276		-45.190699		-29.825835		85.127286		112.770522		2.038379		-12.437513		8.340071		-30.212879		-27.110636		-12.347367		72.468572		122.354398		-25.627410		-4.753818		-16.759162		
0.452702		0.085998		1.868143		81.600444		0.012572		1.386433		0.883031		34.514573		0.954363		-4.619885		-41.274416		-20.664499		1.742758		0.160431		35.026577		-10.003104		-9.568761		-30.227976		-27.781654		3.984403		10.679191		-37.982502		-2.494332		4.740265		-0.775681		0.356134		0.310810		-44.068318		-44.144645		-30.948152		85.243913		112.421624		1.745329		-12.797460		8.222420		-32.560141		-26.479062		-12.606265		72.096311		122.520756		-26.124731		-5.165294		-17.183889		
0.456894		0.116377		2.064841		81.429070		0.011675		1.373557		0.872025		33.760073		0.892782		-5.072291		-39.741524		-20.597354		2.136856		-0.170398		34.226302		-10.091637		-10.289563		-29.394726		-27.875854		4.101303		10.673555		-37.532305		-2.419100		5.062603		-2.072481		0.226656		0.195219		-47.167219		-43.084275		-31.951756		85.322131		112.097297		1.450120		-13.054438		8.149663		-34.912841		-25.768562		-12.834148		71.703442		122.683167		-26.570456		-5.493410		-17.597665		
0.461086		0.105984		2.198889		81.227932		0.010643		1.360395		0.860897		33.073460		0.821366		-5.430533		-38.221441		-20.528856		2.583721		-0.418744		33.439771		-10.149854		-11.107680		-28.480139		-27.917993		4.259134		10.660568		-36.994430		-2.372497		5.409940		-3.348124		0.119034		0.025368		-50.152053		-41.902309		-32.876445		85.375337		111.769123		1.126058		-13.276806		8.063458		-37.241596		-25.023240		-13.046131		71.332922		122.834872		-26.986399		-5.770857		-18.018406		
0.465278		0.072467		2.344433		81.046808		0.009742		1.347051		0.849688		32.366237		0.732609		-5.776663		-36.719768		-20.432519		3.111342		-0.617704		32.643131		-10.198832		-12.013156		-27.555533		-27.938581		4.491547		10.643833		-36.446689		-2.351868		5.813534		-4.657667		0.026836		-0.195330		-53.078654		-40.557499		-33.732360		85.392685		111.408307		0.752614		-13.485993		7.937318		-39.476044		-24.298064		-13.266633		70.947538		122.998321		-27.375594		-6.025850		-18.477589		
0.469470		0.053741		2.644886		80.882031		0.009022		1.333941		0.838235		31.390070		0.615458		-6.168713		-35.106022		-20.189173		4.003898		-0.734805		31.574020		-10.262977		-13.138636		-26.485481		-27.835491		5.057400		10.644896		-36.041464		-2.322177		6.302643		-6.008586		-0.096589		-0.650013		-55.917926		-39.021303		-34.453737		85.375910		110.837227		0.200719		-13.726631		7.605756		-41.529483		-23.763890		-13.285515		70.416876		123.353587		-27.610384		-6.341721		-19.138830		
0.473662		0.002662		2.817858		80.958587		0.008423		1.320259		0.826983		30.601795		0.446385		-6.632527		-33.584582		-20.106761		4.527539		-0.716158		30.762268		-10.192832		-13.977656		-25.446834		-27.780476		5.461491		10.640750		-35.524435		-2.268682		6.422202		-7.222476		0.016034		-0.845821		-58.265695		-37.491564		-34.827380		85.264840		110.405246		-0.110287		-13.867571		7.307000		-43.868659		-23.089132		-13.695836		70.206283		123.516669		-28.014236		-6.483263		-19.622342		
0.477854		-0.059914		3.091526		81.086574		0.007847		1.306635		0.815661		29.677104		0.227883		-7.149477		-32.040012		-20.021041		5.106754		-0.581740		29.817335		-10.075538		-14.880606		-24.349313		-27.639509		5.978392		10.665476		-35.117986		-2.217191		6.500321		-8.405238		0.130438		-1.052899		-60.459512		-35.887206		-35.079240		85.132125		109.820357		-0.417827		-14.000672		6.807505		-46.148761		-22.403660		-14.153814		69.994445		123.749174		-28.436670		-6.640546		-20.140305		
0.482045		-0.136657		3.613906		81.214592		0.007166		1.293477		0.804126		28.403706		-0.072818		-7.781216		-30.386052		-19.936382		5.754429		-0.207108		28.491518		-9.891733		-15.960034		-23.084813		-27.382940		6.716374		10.749235		-34.973453		-2.201949		6.551626		-9.587448		0.236717		-1.298493		-62.482342		-34.318277		-35.161803		84.944525		108.906872		-0.642721		-14.078523		5.829286		-48.322493		-21.720092		-14.584945		69.731804		124.129291		-28.799250		-6.830060		-20.810067		
0.486237		-0.239054		4.270322		81.324163		0.006253		1.280516		0.792476		26.950219		-0.431175		-8.482557		-28.665309		-19.900849		6.342384		0.476517		26.956384		-9.629711		-17.123594		-21.721704		-27.111984		7.591012		10.877162		-34.973365		-2.215448		6.571376		-10.742377		0.295398		-1.577317		-64.330777		-32.798335		-35.183390		84.713591		107.750053		-0.588191		-14.082876		4.218240		-50.424968		-20.974871		-15.043549		69.438091		124.521568		-29.138684		-7.126423		-21.493313		
0.490429		-0.386360		4.647728		81.511885		0.005145		1.266990		0.780695		25.805779		-0.820565		-9.339095		-26.977901		-19.878261		6.580770		0.943023		25.741285		-9.288902		-18.171658		-20.329366		-26.888859		8.360748		10.925229		-34.577531		-2.176364		6.612378		-12.328956		0.388794		-2.024228		-66.051195		-31.245728		-35.085241		84.365262		106.808604		-0.505829		-14.113225		2.897788		-52.400574		-20.368245		-15.358605		69.011857		124.809462		-29.451093		-7.580546		-21.888858		
